<?xml version="1.0" encoding="utf-8"?>
<!-- Generator: Adobe Illustrator 22.1.0, SVG Export Plug-In . SVG Version: 6.00 Build 0)  -->
<svg version="1.1" id="Layer_1" xmlns="http://www.w3.org/2000/svg" xmlns:xlink="http://www.w3.org/1999/xlink" x="0px" y="0px"
	 viewBox="0 0 1000 600" style="enable-background:new 0 0 1000 600;" xml:space="preserve">
<style type="text/css">
	.st0{fill:#D4D4D4;}
	.st1{fill:url(#SVGID_1_);}
	.st2{fill:#0F888F;}
	.st3{fill:#232323;}
</style>
<rect class="st0" width="1000" height="600"/>
<linearGradient id="SVGID_1_" gradientUnits="userSpaceOnUse" x1="37" y1="431" x2="969" y2="431">
	<stop  offset="0" style="stop-color:#941800"/>
	<stop  offset="9.487180e-02" style="stop-color:#ED1C24"/>
	<stop  offset="0.2077" style="stop-color:#AA5000"/>
	<stop  offset="0.3513" style="stop-color:#FF9500"/>
	<stop  offset="0.4692" style="stop-color:#E8FF00"/>
	<stop  offset="0.5974" style="stop-color:#7EBF00"/>
	<stop  offset="1" style="stop-color:#00AA02"/>
</linearGradient>
<path class="st1" d="M939.3,519H66.7C50.3,519,37,505.7,37,489.3V372.7c0-16.4,13.3-29.7,29.7-29.7h872.7
	c16.4,0,29.7,13.3,29.7,29.7v116.7C969,505.7,955.7,519,939.3,519z"/>
<polygon class="st2" points="56,316 92.9,316 74.7,345 "/>
<polygon class="st2" points="217,316 253.9,316 235.7,345 "/>
<polygon class="st2" points="550,316 586.9,316 568.7,345 "/>
<polygon class="st2" points="827,316 863.9,316 845.7,345 "/>
<g>
	<path class="st2" d="M70.3,554c0,6.6-2.5,10.3-6.8,10.3c-3.8,0-6.4-3.6-6.4-10c0-6.5,2.8-10.1,6.8-10.1
		C68,544.2,70.3,547.8,70.3,554z M59.7,554.3c0,5.1,1.6,7.9,4,7.9c2.7,0,4-3.1,4-8.1c0-4.8-1.2-7.9-4-7.9
		C61.4,546.2,59.7,549,59.7,554.3z"/>
	<path class="st2" d="M72.9,562.4c0-1.1,0.8-1.9,1.8-1.9s1.8,0.8,1.8,1.9c0,1.1-0.7,1.9-1.8,1.9C73.7,564.3,72.9,563.5,72.9,562.4z"
		/>
	<path class="st2" d="M84.7,547L84.7,547l-3.4,1.8l-0.5-2l4.3-2.3h2.2V564h-2.5V547z"/>
</g>
<g>
	<path class="st2" d="M231.3,554c0,6.6-2.5,10.3-6.8,10.3c-3.8,0-6.4-3.6-6.4-10c0-6.5,2.8-10.1,6.8-10.1
		C229,544.2,231.3,547.8,231.3,554z M220.7,554.3c0,5.1,1.6,7.9,4,7.9c2.7,0,4-3.1,4-8.1c0-4.8-1.2-7.9-4-7.9
		C222.4,546.2,220.7,549,220.7,554.3z"/>
	<path class="st2" d="M233.9,562.4c0-1.1,0.8-1.9,1.8-1.9s1.8,0.8,1.8,1.9c0,1.1-0.7,1.9-1.8,1.9
		C234.7,564.3,233.9,563.5,233.9,562.4z"/>
	<path class="st2" d="M245.7,547L245.7,547l-3.4,1.8l-0.5-2l4.3-2.3h2.2V564h-2.5V547z"/>
	<path class="st2" d="M255.1,559c0-2.5,1.5-4.2,3.9-5.2l0-0.1c-2.2-1-3.1-2.7-3.1-4.4c0-3.1,2.6-5.2,6-5.2c3.8,0,5.7,2.4,5.7,4.8
		c0,1.6-0.8,3.4-3.2,4.6v0.1c2.4,1,3.9,2.7,3.9,5c0,3.4-2.9,5.7-6.6,5.7C257.6,564.3,255.1,561.9,255.1,559z M265.6,558.9
		c0-2.4-1.6-3.5-4.3-4.3c-2.3,0.7-3.5,2.2-3.5,4c-0.1,2,1.4,3.7,3.9,3.7C264.1,562.4,265.6,560.9,265.6,558.9z M258.3,549.2
		c0,2,1.5,3,3.7,3.6c1.7-0.6,3-1.8,3-3.5c0-1.6-0.9-3.2-3.3-3.2C259.5,546.1,258.3,547.5,258.3,549.2z"/>
</g>
<g>
	<path class="st2" d="M564.3,554c0,6.6-2.5,10.3-6.8,10.3c-3.8,0-6.4-3.6-6.4-10c0-6.5,2.8-10.1,6.8-10.1
		C562,544.2,564.3,547.8,564.3,554z M553.7,554.3c0,5.1,1.6,7.9,4,7.9c2.7,0,4-3.1,4-8.1c0-4.8-1.2-7.9-4-7.9
		C555.4,546.2,553.7,549,553.7,554.3z"/>
	<path class="st2" d="M566.9,562.4c0-1.1,0.8-1.9,1.8-1.9c1,0,1.8,0.8,1.8,1.9c0,1.1-0.7,1.9-1.8,1.9
		C567.7,564.3,566.9,563.5,566.9,562.4z"/>
	<path class="st2" d="M584.6,546.7h-7.4l-0.8,5c0.5-0.1,0.9-0.1,1.6-0.1c1.5,0,3,0.3,4.2,1c1.5,0.9,2.8,2.5,2.8,5
		c0,3.8-3,6.7-7.3,6.7c-2.1,0-3.9-0.6-4.9-1.2l0.7-2c0.8,0.5,2.4,1.1,4.2,1.1c2.5,0,4.6-1.6,4.6-4.2c0-2.5-1.7-4.3-5.6-4.3
		c-1.1,0-2,0.1-2.7,0.2l1.3-9.4h9.3V546.7z"/>
	<path class="st2" d="M588.3,564v-1.6l2.1-2c5-4.7,7.2-7.3,7.3-10.2c0-2-1-3.8-3.9-3.8c-1.8,0-3.2,0.9-4.1,1.7l-0.8-1.9
		c1.3-1.1,3.3-2,5.5-2c4.2,0,6,2.9,6,5.7c0,3.6-2.6,6.5-6.7,10.5l-1.6,1.4v0.1h8.8v2.2H588.3z"/>
	<path class="st2" d="M615.4,546.7h-7.4l-0.8,5c0.5-0.1,0.9-0.1,1.6-0.1c1.5,0,3,0.3,4.2,1c1.5,0.9,2.8,2.5,2.8,5
		c0,3.8-3,6.7-7.3,6.7c-2.1,0-3.9-0.6-4.9-1.2l0.7-2c0.8,0.5,2.4,1.1,4.2,1.1c2.5,0,4.6-1.6,4.6-4.2c0-2.5-1.7-4.3-5.6-4.3
		c-1.1,0-2,0.1-2.7,0.2l1.3-9.4h9.3V546.7z"/>
</g>
<g>
	<path class="st2" d="M841.3,554c0,6.6-2.5,10.3-6.8,10.3c-3.8,0-6.4-3.6-6.4-10c0-6.5,2.8-10.1,6.8-10.1
		C839,544.2,841.3,547.8,841.3,554z M830.7,554.3c0,5.1,1.6,7.9,4,7.9c2.7,0,4-3.1,4-8.1c0-4.8-1.2-7.9-4-7.9
		C832.4,546.2,830.7,549,830.7,554.3z"/>
	<path class="st2" d="M843.9,562.4c0-1.1,0.8-1.9,1.8-1.9c1,0,1.8,0.8,1.8,1.9c0,1.1-0.7,1.9-1.8,1.9
		C844.7,564.3,843.9,563.5,843.9,562.4z"/>
	<path class="st2" d="M851.5,562.1c0.6,0.1,1.2,0,2.1-0.1c1.5-0.2,3-0.8,4.1-1.9c1.3-1.2,2.2-2.9,2.6-5.2h-0.1
		c-1.1,1.3-2.6,2.1-4.6,2.1c-3.5,0-5.8-2.6-5.8-6c0-3.7,2.7-6.9,6.7-6.9c4,0,6.5,3.2,6.5,8.2c0,4.3-1.4,7.3-3.4,9.1
		c-1.5,1.5-3.6,2.4-5.7,2.6c-1,0.1-1.8,0.2-2.4,0.1V562.1z M852.4,550.9c0,2.4,1.5,4.1,3.8,4.1c1.8,0,3.1-0.9,3.8-2
		c0.1-0.2,0.2-0.5,0.2-1c0-3.3-1.2-5.9-4-5.9C854,546.2,852.4,548.2,852.4,550.9z"/>
</g>
<g>
	<path class="st3" d="M64.9,277l1.8,1.2l-4.9,7.2l4.5,3c0.3-0.6,0.9-1.6,1.3-2.1c1.1-1.6,2.5-2.9,4-3.6c1.7-0.7,3.6-0.7,5.5,0.6
		c1.6,1.1,2.4,2.4,2.7,3.8c0.4,2.3-0.6,4.9-2.1,7.2c-1,1.5-1.9,2.6-2.5,3.2l-16.7-11.3L64.9,277z M75.1,294.5c0.4-0.4,0.8-1,1.4-1.7
		c0.9-1.3,1.4-3,1.1-4.4c-0.2-1-0.8-1.9-1.8-2.6c-1.3-0.9-2.5-0.9-3.7-0.5c-1.2,0.5-2.2,1.4-3,2.6c-0.3,0.5-0.7,1.2-1.1,1.8
		L75.1,294.5z"/>
	<path class="st3" d="M73.8,274l4.1,2.8c0.2-0.5,0.6-1.3,1.2-2.1c1.7-2.6,4.6-4.5,7.5-2.5c1.3,0.9,1.8,1.9,1.9,3.1
		c0.2,2.1-0.8,4.2-1.9,5.8c-0.8,1.2-1.7,2.3-2.4,3.1l-12-8.1L73.8,274z M84.3,281.1c0.3-0.4,0.7-0.8,1.1-1.4
		c1.1-1.7,1.7-3.9-0.2-5.2c-1.9-1.3-3.7,0-4.8,1.7c-0.4,0.6-0.7,1.2-1,1.7L84.3,281.1z M81.2,263.2l12,8.1l-1.5,2.2l-12-8.1
		L81.2,263.2z"/>
	<path class="st3" d="M83.7,259.8c0.4-0.9,1.4-2.6,2.3-4c1.4-2,3.9-5.1,6.6-3.3c1.5,1,1.6,2.8,1,4.3l0,0c1.4-1.6,3.3-2.2,5-1
		c3.2,2.1,0.9,6.4-0.7,8.7c-0.9,1.3-2,2.7-2.4,3.3L83.7,259.8z M90,261l1.1-1.6c1.1-1.6,1.7-3.6,0.3-4.6c-1.2-0.8-2.5-0.2-4,2
		c-0.5,0.7-0.7,1.2-1,1.8L90,261z M95.5,264.8c0.5-0.6,0.8-1,1.3-1.7c1-1.5,2.1-3.9,0.4-5.1c-1.7-1.2-3.3,0.3-4.7,2.4l-1.1,1.6
		L95.5,264.8z"/>
	<path class="st3" d="M108.5,248.7l-1.6-0.9l0,0.1c0.5,1.3,0.5,3.2-0.7,4.9c-1.6,2.4-4.2,2.5-5.9,1.3c-2.9-2-2.7-5.6,0.4-10.3
		l-0.2-0.2c-1-0.7-3-1.6-4.6,0.8c-0.8,1.1-1.2,2.5-1.2,3.7l-1.8-0.5c0-1.4,0.6-3.2,1.6-4.7c2.5-3.7,5.6-2.9,8-1.2l4.5,3
		c1,0.7,2.1,1.3,3,1.8L108.5,248.7z M102.2,244.8c-1.7,2.4-3.1,5.3-0.7,6.9c1.4,1,2.7,0.5,3.5-0.6c1.1-1.6,0.7-3.2,0-4.3
		c-0.2-0.2-0.4-0.4-0.6-0.6L102.2,244.8z"/>
	<path class="st3" d="M107.3,238.3c3,2,5.5,0.9,7-1.3c1.1-1.6,1.4-2.7,1.6-3.7l1.8,0.7c-0.2,1-0.7,2.6-2,4.5
		c-2.5,3.7-6.4,4.3-10.1,1.8c-3.6-2.5-5-6.5-2.7-10c2.7-3.9,6.8-2.6,9-1.1c0.4,0.3,0.8,0.6,1,0.8L107.3,238.3z M110.1,230.9
		c-1.4-1-3.9-1.8-5.6,0.6c-1.5,2.2-0.1,4.6,1.3,5.8L110.1,230.9z"/>
	<path class="st3" d="M114,214.7l1.7,1.2l-2.5,3.8l10.3,7l-1.5,2.2l-10.3-7l-2.5,3.8l-1.7-1.2L114,214.7z"/>
	<path class="st3" d="M120.3,205.4l5.1,3.4c1.9,1.3,3.1,2.1,4.7,3.4l0.1-0.1c-1-1.7-1.5-2.7-2.4-4.4l-3.7-8l1.7-2.6l12,8.1l-1.4,2.1
		l-5.1-3.4c-2-1.3-2.9-2.1-4.8-3.5l0,0.1c1,1.8,1.6,3,2.4,4.5c1.1,2.4,2.5,5.3,3.7,8l-1.7,2.5l-12-8.1L120.3,205.4z"/>
	<path class="st3" d="M137.3,180.2l1.7,1.2l-2.5,3.8l10.3,7l-1.5,2.2l-10.3-7l-2.5,3.8l-1.7-1.2L137.3,180.2z"/>
	<path class="st3" d="M155,180l-1.6-0.9l-0.1,0.1c0.5,1.3,0.5,3.2-0.7,4.9c-1.6,2.4-4.2,2.5-5.9,1.3c-2.9-2-2.7-5.6,0.4-10.3
		l-0.2-0.2c-1-0.7-3-1.6-4.6,0.8c-0.8,1.1-1.2,2.5-1.2,3.7l-1.8-0.5c0-1.4,0.6-3.2,1.6-4.7c2.5-3.7,5.6-2.9,8-1.2l4.5,3
		c1,0.7,2.1,1.3,3,1.8L155,180z M148.7,176.1c-1.7,2.4-3.1,5.3-0.7,6.9c1.4,1,2.7,0.5,3.5-0.6c1.1-1.6,0.7-3.2,0-4.3
		c-0.2-0.2-0.4-0.4-0.6-0.6L148.7,176.1z"/>
	<path class="st3" d="M148,164.3l5.2,3.5l0.4-0.5l-2.2-8.1l1.8-2.7l1.9,8.9c1.5-1.8,3.6-2.1,6.4-1.6c1,0.2,2.5,0.6,3.8,0.7l-1.5,2.3
		c-0.7,0-2-0.2-3.2-0.5c-2.5-0.5-4.1,0-5.5,2.1l-0.3,0.4l5.3,3.6l-1.5,2.2l-12-8.1L148,164.3z"/>
	<path class="st3" d="M167.8,147.9c4.4,3,4.3,7.4,2.3,10.3c-2.2,3.3-6.3,4.1-10.1,1.6c-4-2.7-4.6-7-2.3-10.3
		C160.1,146,164.1,145.4,167.8,147.9z M161.5,157.5c2.6,1.8,5.6,1.6,7.1-0.5c1.4-2.1,0.5-5-2.2-6.8c-2-1.4-5.3-2.1-7.1,0.5
		C157.6,153.2,159.2,156,161.5,157.5z"/>
	<path class="st3" d="M171,144.2c3,2,5.5,0.9,7-1.3c1.1-1.6,1.4-2.7,1.6-3.8l1.8,0.7c-0.2,1-0.7,2.6-2,4.5
		c-2.5,3.7-6.4,4.3-10.1,1.8c-3.6-2.5-5-6.5-2.7-10c2.7-3.9,6.8-2.6,9-1.1c0.4,0.3,0.8,0.6,1,0.8L171,144.2z M173.8,136.8
		c-1.4-1-3.9-1.8-5.6,0.6c-1.5,2.2-0.1,4.6,1.3,5.8L173.8,136.8z"/>
</g>
<g>
	<path class="st3" d="M235.5,278.9l8.7,5.9l7.6-11.3l-8.7-5.9l2.1-3l20.8,14.1l-2.1,3l-9.8-6.6l-7.6,11.3l9.8,6.6l-2,3l-20.8-14.1
		L235.5,278.9z"/>
	<path class="st3" d="M263.6,267.2c3.7,2.4,7,0.8,9.1-2.2c1.5-2.2,2-3.7,2.4-5.1l2.3,0.8c-0.3,1.4-1,3.5-2.8,6.2
		c-3.5,5.1-8.6,6.2-13.1,3.1c-4.5-3.1-6.1-8.4-2.8-13.3c3.7-5.5,9-4,11.7-2.1c0.6,0.4,0.9,0.7,1.2,1L263.6,267.2z M267.7,256.9
		c-1.7-1.2-5-2.2-7.3,1.2c-2.1,3.1-0.5,6.1,1.3,7.7L267.7,256.9z"/>
	<path class="st3" d="M275.5,232.4l15,10.1l-2.1,3l-12.8-8.7l-5.3,7.8l12.8,8.7l-2,3l-15-10.1L275.5,232.4z"/>
	<path class="st3" d="M287.4,214.8l15,10.1l-2,3l-12.8-8.7l-3.9,5.7l3.9,2.6c4.2,2.8,6.7,5.2,6.5,8.2c0,1.2-0.3,2.4-1.3,3.9
		l-2.3-1.1c0.3-0.6,0.5-1.5,0.5-2.1c0-2.2-2-3.8-5.3-6.1l-6-4.1L287.4,214.8z"/>
	<path class="st3" d="M308.4,199.7c5.5,3.7,5,9.7,2.3,13.7c-3.1,4.5-8.4,6-13.1,2.8c-5-3.4-5.5-9-2.3-13.7
		C298.5,197.7,303.8,196.6,308.4,199.7z M299.5,213.1c3.3,2.2,7.2,1.8,9.2-1.2c2-2.9,1-6.7-2.4-9c-2.5-1.7-6.7-2.5-9.1,1.1
		S296.7,211.1,299.5,213.1z"/>
	<path class="st3" d="M304.3,189.9l4.8-0.2c1.3-0.1,2.4-0.1,3.6,0l0.1-0.1c-0.5-1.2-0.9-2.2-1.4-3.3l-1.6-4.5l2.2-3.3l3.4,10.6
		l11.7-0.6l-2.3,3.5l-5,0.2c-1.3,0.1-2.5,0.1-3.8,0l0,0.1c0.5,1.2,0.9,2.3,1.4,3.5l1.7,4.7l-2.3,3.3l-3.6-11.1l-11.2,0.7
		L304.3,189.9z"/>
	<path class="st3" d="M331.4,165.7c5.5,3.7,5,9.7,2.3,13.7c-3.1,4.5-8.4,6-13.1,2.8c-5-3.4-5.5-9-2.3-13.7
		C321.5,163.7,326.8,162.6,331.4,165.7z M322.6,179c3.3,2.2,7.2,1.8,9.2-1.2c2-2.9,1-6.7-2.4-9c-2.5-1.7-6.7-2.5-9.1,1.1
		C317.8,173.6,319.7,177.1,322.6,179z"/>
</g>
<g>
	<path class="st3" d="M570.4,277.7c5.8,3.9,6.4,9.5,3.6,13.7c-3,4.4-8.5,5.2-13.6,1.8c-5.3-3.6-6.6-9.3-3.5-13.7
		C560,274.9,565.5,274.3,570.4,277.7z M561.9,290.8c3.6,2.4,8.1,2.7,10.4-0.8c2.3-3.4,0.5-7.5-3.3-10.1c-3.3-2.3-8-2.9-10.4,0.7
		C556.1,284.3,558.2,288.3,561.9,290.8z"/>
	<path class="st3" d="M574.5,264.1l1.7,1.2l-2.5,3.8l10.3,7l-1.5,2.2l-10.3-7l-2.5,3.8l-1.7-1.2L574.5,264.1z"/>
	<path class="st3" d="M581.8,253.4l12,8.1l-1.5,2.2l-10.3-7l-2.8,4.1l3.1,2.1c3.4,2.3,5.4,4.1,5.4,6.4c0.1,0.9-0.1,1.8-0.9,2.9
		l-1.9-0.9c0.2-0.5,0.4-1.1,0.3-1.5c-0.1-1.7-1.7-2.9-4.4-4.8l-4.8-3.3L581.8,253.4z"/>
	<path class="st3" d="M585.6,247.8l5.1,3.4c1.9,1.3,3.1,2.1,4.7,3.4l0.1-0.1c-1-1.7-1.5-2.7-2.4-4.4l-3.7-8l1.7-2.6l12,8.1l-1.4,2.1
		l-5.1-3.4c-2-1.3-2.9-2.1-4.8-3.5l-0.1,0.1c1,1.8,1.6,3,2.4,4.5c1.1,2.4,2.5,5.3,3.7,8l-1.7,2.5l-12-8.1L585.6,247.8z"/>
	<path class="st3" d="M594.7,234.3l3.9,2.7c1.5,1,2.9,1.2,4.2-0.8c0.6-0.9,0.9-2.1,0.9-3.2l-5.7-3.8l1.5-2.2l12,8.1l-1.5,2.2
		l-4.8-3.3l0,0c0,1.2-0.5,2.7-1.3,3.9c-1.5,2.3-3.8,3.2-6.6,1.3l-4.2-2.8L594.7,234.3z"/>
	<path class="st3" d="M603.4,221.4l4.8,3.3l3.9-5.7l-4.8-3.3l1.5-2.2l12,8.1l-1.5,2.2l-5.4-3.7l-3.9,5.7l5.4,3.7l-1.5,2.2l-12-8.1
		L603.4,221.4z"/>
	<path class="st3" d="M612.6,207.8l4.1,2.8c0.2-0.5,0.6-1.3,1.2-2.1c1.8-2.6,4.6-4.5,7.5-2.5c1.3,0.9,1.8,1.9,1.9,3.1
		c0.2,2.1-0.8,4.2-1.9,5.8c-0.8,1.2-1.7,2.3-2.4,3.1l-12-8.1L612.6,207.8z M623.1,214.9c0.3-0.4,0.7-0.8,1.1-1.4
		c1.1-1.7,1.7-3.9-0.2-5.2c-1.9-1.3-3.7,0-4.8,1.7c-0.4,0.6-0.7,1.2-1,1.7L623.1,214.9z M620,197l12,8.1l-1.5,2.2l-12-8.1L620,197z"
		/>
	<path class="st3" d="M619.8,186.7c1.1,0.6,2.3,0.7,3-0.3c0.7-1.1,0.3-2.1-0.7-3l1.1-1.6c2,1.5,2.1,3.5,0.8,5.4
		c-1.5,2.2-3.4,2.1-5.2,1L619.8,186.7z M623.7,191.4l5.1,3.4c1.9,1.3,3.1,2.1,4.7,3.4l0.1-0.1c-1-1.7-1.5-2.7-2.4-4.4l-3.7-8
		l1.7-2.6l12,8.1l-1.4,2.1l-5.1-3.4c-2-1.3-2.9-2.1-4.8-3.5l-0.1,0.1c1,1.8,1.6,3,2.4,4.5c1.1,2.4,2.5,5.3,3.7,8l-1.7,2.5l-12-8.1
		L623.7,191.4z"/>
	<path class="st3" d="M640.8,166.3l1.7,1.2l-2.5,3.8l10.3,7l-1.5,2.2l-10.3-7l-2.5,3.8l-1.7-1.2L640.8,166.3z"/>
	<path class="st3" d="M643.4,162.3l5.1,3.4c1.9,1.3,3.1,2.1,4.7,3.4l0.1-0.1c-1-1.7-1.5-2.7-2.4-4.4l-3.7-8l1.7-2.6l12,8.1l-1.4,2.1
		l-5.1-3.4c-2-1.3-2.9-2.1-4.8-3.5l-0.1,0.1c1,1.8,1.6,3,2.4,4.5c1.1,2.4,2.5,5.3,3.7,8l-1.7,2.5l-12-8.1L643.4,162.3z"/>
	<path class="st3" d="M651.4,150.5l1.8-2.7l7.5,1.9c1.1,0.3,2.9,0.8,4,1.1l0,0c-0.7-0.9-2.2-2.8-3.2-4.2l-3.9-5.5l1.8-2.7l12.6,7.3
		l-1.4,2.1l-5.9-3.6c-1.3-0.8-3-1.7-4.5-2.7l0,0.1c0.9,1.1,1.6,2,3,4l4.5,6.4l-1.1,1.6l-7.4-1.9c-1.4-0.4-3.5-1.1-4.8-1.5l-0.1,0.1
		c1.4,1,2.9,2.2,4.2,3.1l5.5,4.1l-1.4,2L651.4,150.5z"/>
	<path class="st3" d="M668.8,124.8l12,8.1l-1.5,2.2l-10.3-7l-3.8,5.6l10.3,7l-1.5,2.2l-12-8.1L668.8,124.8z"/>
	<path class="st3" d="M677.4,112.1l12,8.1l-1.5,2.2l-10.3-7l-2.8,4.1l3.1,2.1c3.4,2.3,5.4,4.1,5.4,6.4c0.1,0.9-0.1,1.8-0.9,2.9
		l-1.9-0.9c0.2-0.5,0.4-1.1,0.3-1.5c-0.1-1.7-1.7-2.9-4.4-4.8l-4.8-3.3L677.4,112.1z"/>
	<path class="st3" d="M687,111.7c3,2,5.5,0.9,7-1.3c1.1-1.6,1.4-2.7,1.6-3.8l1.8,0.7c-0.2,1-0.7,2.6-2,4.5
		c-2.5,3.7-6.4,4.3-10.1,1.8c-3.6-2.5-5-6.5-2.7-10c2.7-3.9,6.8-2.6,9-1.1c0.4,0.3,0.8,0.6,1,0.8L687,111.7z M689.8,104.2
		c-1.4-1-3.9-1.8-5.6,0.6c-1.5,2.2-0.1,4.6,1.3,5.8L689.8,104.2z"/>
	<path class="st3" d="M685.6,89.4c1.1,0.6,2.3,0.7,3-0.3c0.7-1.1,0.3-2.1-0.7-3l1.1-1.6c2,1.5,2.1,3.5,0.8,5.4
		c-1.5,2.2-3.4,2.1-5.2,1L685.6,89.4z M689.6,94.1l5.1,3.4c1.9,1.3,3.1,2.1,4.7,3.4l0.1-0.1c-1-1.7-1.5-2.7-2.4-4.4l-3.7-8l1.7-2.6
		l12,8.1l-1.4,2.1l-5.1-3.4c-2-1.3-2.9-2.1-4.8-3.5l-0.1,0.1c1,1.8,1.6,3,2.4,4.5c1.1,2.4,2.5,5.3,3.7,8l-1.7,2.5l-12-8.1
		L689.6,94.1z"/>
	<path class="st3" d="M702.9,78.8c-0.9-0.6-1.1-1.7-0.6-2.5c0.6-0.9,1.6-1,2.6-0.4c0.9,0.6,1.2,1.6,0.5,2.5
		C704.8,79.2,703.7,79.3,702.9,78.8z M715.2,88.7c-1.1-1.5-3.3-4-4.9-5.5l1.4-2.6c1.7,2,3.7,5,4.4,6.5L715.2,88.7z"/>
	<path class="st3" d="M718.7,83.4c-1.3-3.4-3.6-7-8-10c-4.4-3-8.5-3.8-12.2-3.7l1.1-1.7c3.1-0.2,7.4,0.3,12.3,3.6
		c4.9,3.3,6.9,7.1,7.9,10.1L718.7,83.4z"/>
</g>
<g>
	<path class="st3" d="M828.1,283.4l-6.4,9.5l-3.4-2.3l15.6-23l3.4,2.3l-6.4,9.5l27.2,18.4l-2.7,4.1L828.1,283.4z"/>
	<path class="st3" d="M834.3,263.4l2.7-4.1l13.7,9.3l0.1-0.1c-0.7-1.4-1-3.1-0.8-4.8c0.1-1.7,0.6-3.4,1.7-4.9c2-3,7.1-6.6,14.7-1.5
		l13,8.8l-2.7,4.1l-12.6-8.5c-3.5-2.4-7.4-3.1-10,0.8c-1.8,2.6-1.4,5.9,0.3,8.1c0.4,0.6,0.9,1,1.7,1.6l13.2,9l-2.7,4.1L834.3,263.4z
		"/>
	<path class="st3" d="M875.1,250.4c5.5,3.6,10,1.5,12.8-2.5c2-2.9,2.7-5,3.1-7l3.3,1.2c-0.3,1.9-1.3,4.8-3.7,8.4
		c-4.7,6.9-11.9,8-18.5,3.5c-6.6-4.5-9.1-12-4.7-18.5c4.9-7.3,12.5-5,16.6-2.2c0.8,0.6,1.4,1.1,1.8,1.4L875.1,250.4z M880.3,236.6
		c-2.5-1.8-7.2-3.3-10.3,1.2c-2.8,4.1-0.3,8.4,2.3,10.6L880.3,236.6z"/>
	<path class="st3" d="M906,226.9c-1.4-1.1-3.6-2.7-5.5-4l-26.5-17.9l2.7-4l13.8,9.3l0.1-0.1c-1.5-3.1-1.3-6.7,1.1-10.3
		c3.7-5.5,10.9-6.4,17.6-1.8c7.8,5.3,8.3,13,5,18c-2.2,3.2-5.2,5-9.2,4.7l-0.1,0.1l3.5,2.6L906,226.9z M900,216.7
		c0.5,0.3,1.1,0.6,1.6,0.8c3.3,1.1,6.8,0,8.8-2.9c2.9-4.2,1.2-9.1-3.8-12.5c-4.4-3-9.7-3.2-12.7,1.1c-1.9,2.8-1.8,6.6,0.7,9.5
		c0.4,0.4,0.8,0.9,1.5,1.3L900,216.7z"/>
	<path class="st3" d="M915.2,191.2c5.5,3.6,10,1.5,12.8-2.5c2-2.9,2.7-5,3.1-7l3.3,1.2c-0.3,1.9-1.3,4.8-3.7,8.4
		c-4.7,6.9-11.9,8-18.5,3.5c-6.6-4.5-9.1-12-4.7-18.5c4.9-7.3,12.5-5,16.6-2.2c0.8,0.6,1.4,1.1,1.8,1.4L915.2,191.2z M920.4,177.4
		c-2.5-1.8-7.2-3.3-10.3,1.2c-2.8,4.1-0.3,8.4,2.3,10.6L920.4,177.4z"/>
	<path class="st3" d="M935.1,175.1c1.6-0.7,3.8-2.3,5.2-4.3c2-3,1.5-5.3-0.3-6.5c-1.9-1.3-3.7-0.8-6.8,1.4
		c-4.1,3.1-7.6,3.5-10.2,1.7c-3.5-2.4-4.5-7.3-1.2-12.1c1.5-2.3,3.5-3.8,5.1-4.6l2.2,3c-1.1,0.5-3,1.6-4.4,3.7
		c-1.6,2.4-1.2,4.7,0.5,5.8c1.8,1.2,3.5,0.4,6.6-1.7c4.1-2.9,7.3-3.6,10.6-1.4c3.8,2.6,4.5,7.5,0.9,12.8c-1.7,2.4-3.8,4.3-5.7,5.3
		L935.1,175.1z"/>
	<path class="st3" d="M927,135l6.3,4.3l3.9-5.8l3,2.1l-3.9,5.8l11.8,8c2.7,1.8,4.8,2.1,6.3-0.2c0.7-1.1,1.1-1.9,1.3-2.5l3.1,1.8
		c-0.2,1-0.8,2.4-1.9,4c-1.3,1.9-2.9,3-4.6,3.3c-2,0.4-4.2-0.5-6.8-2.3l-12-8.1l-2.3,3.5l-3-2.1l2.3-3.5l-5.3-3.6L927,135z"/>
	<path class="st3" d="M953.7,137.4l-22.2-14.1l3-4.4l21.3,15.4L953.7,137.4z M959.4,143c-1.6-1.1-2-3.1-1-4.6c1.1-1.7,3-1.9,4.7-0.8
		c1.6,1.1,2.1,3,1,4.6C962.9,143.7,961,144,959.4,143z"/>
	<path class="st3" d="M960.9,126.8l-22.2-14.1l3-4.4l21.3,15.4L960.9,126.8z M966.6,132.3c-1.6-1.1-2-3.1-1-4.6
		c1.1-1.7,3-1.9,4.7-0.8c1.6,1.1,2.1,3,1,4.6C970.1,133.1,968.2,133.4,966.6,132.3z"/>
	<path class="st3" d="M968.1,116.2l-22.2-14.1l3-4.4l21.3,15.4L968.1,116.2z M973.8,121.7c-1.6-1.1-2-3.1-1-4.6
		c1.1-1.7,3-1.9,4.7-0.8c1.6,1.1,2.1,3,1,4.6C977.3,122.5,975.3,122.8,973.8,121.7z"/>
</g>
</svg>
